<?xml version="1.0" standalone="no"?><svg xmlns="http://www.w3.org/2000/svg" viewBox="0 0 1440 320"><path fill="#3e61ac" fill-opacity="1" d="M0,160L18.5,176C36.9,192,74,224,111,240C147.7,256,185,256,222,224C258.5,192,295,128,332,138.7C369.2,149,406,235,443,245.3C480,256,517,192,554,186.7C590.8,181,628,235,665,261.3C701.5,288,738,288,775,277.3C812.3,267,849,245,886,208C923.1,171,960,117,997,122.7C1033.8,128,1071,192,1108,229.3C1144.6,267,1182,277,1218,272C1255.4,267,1292,245,1329,245.3C1366.2,245,1403,267,1422,277.3L1440,288L1440,0L1421.5,0C1403.1,0,1366,0,1329,0C1292.3,0,1255,0,1218,0C1181.5,0,1145,0,1108,0C1070.8,0,1034,0,997,0C960,0,923,0,886,0C849.2,0,812,0,775,0C738.5,0,702,0,665,0C627.7,0,591,0,554,0C516.9,0,480,0,443,0C406.2,0,369,0,332,0C295.4,0,258,0,222,0C184.6,0,148,0,111,0C73.8,0,37,0,18,0L0,0Z"></path></svg>